<?xml version="1.0" encoding="UTF-8"?>
<svg id="Layer_1" data-name="Layer 1" xmlns="http://www.w3.org/2000/svg" viewBox="0 0 85 85">
  <g>
    <path d="M24.94,45.15c.61,1.29,1.43,2.48,2.41,3.55-.18-3.57.63-7.01,2.33-9.76,1.31-2.12,3.04-3.66,5.01-4.5-.76-.16-1.54-.24-2.34-.24-3.25,0-6.19,1.37-8.36,3.58-.53,2.36-.22,4.92.94,7.38Z"/>
    <path d="M31.23,52.43c-3-1.62-5.4-4.07-6.79-7.01-1.07-2.26-1.46-4.61-1.17-6.83-1.85,2.25-2.98,5.18-2.98,8.4,0,1.07.14,2.1.37,3.09,2.61,2.6,6.6,3.41,10.57,2.35Z"/>
    <path d="M30.15,39.27c-.75,1.21-1.31,2.56-1.69,3.99,2.82-1.95,6.04-2.93,9.13-2.74,2.39.15,4.5.98,6.17,2.36-1.26-3.94-4.27-7.01-8.06-8.17-2.2.69-4.13,2.25-5.56,4.55Z"/>
    <path d="M37.56,41.11c-1.36-.08-2.74.08-4.1.44,3.01,1.62,5.41,4.08,6.8,7.02,1.07,2.26,1.46,4.6,1.17,6.82,1.85-2.25,2.98-5.18,2.98-8.4,0-1.06-.13-2.08-.36-3.06-1.66-1.67-3.9-2.66-6.49-2.82Z"/>
    <path d="M36.24,50.74c-1.36.94-2.79,1.63-4.23,2.09h0s0,0-.01,0c-1.38.43-2.77.66-4.12.66-2.59,0-5.03-.8-6.93-2.36,1.27,3.93,4.29,7,8.08,8.15,3.44-1.1,6.1-4.36,7.22-8.55Z"/>
    <path d="M39.76,48.84c-.61-1.29-1.43-2.47-2.4-3.53.09,1.71-.06,3.38-.41,4.93h0s0,0,0,0c-.98,4.35-3.54,7.85-6.93,9.31.76.16,1.54.24,2.34.24,3.25,0,6.19-1.37,8.36-3.58.53-2.36.22-4.91-.94-7.37Z"/>
  </g>
  <g>
    <path d="M66.32,61.35c-.05-.11-.18-.14-.34-.14.12.03.24.07.34.14Z"/>
    <path d="M84.75,79.23l-8.21-23.5c-1.36-4.19-3.24-7.37-5.62-9.54-.55-.58-1.26-1.1-2.15-1.57-.89-.47-1.91-.96-3.07-1.46,6.47-2.09,11.17-4.91,14.11-8.45,2.93-3.54,4.4-8.09,4.4-13.66,0-8.09-3.24-13.87-9.71-17.34C69.86,1.25,64,.02,56.91.02h-23.57l5.5,7.48h19.6c5.52,0,9.95,1.45,13.29,4.34,3.07,2.6,4.6,5.89,4.6,9.86,0,2.1-.46,4.16-1.38,6.18-.92,2.02-2.09,3.72-3.53,5.09-2.11,2.17-4.86,3.74-8.23,4.71-3.37.98-7.51,1.46-12.42,1.46h-4.52l1,7.03,3.11-.31c6.13,0,10.53,1.3,13.19,3.9,3.07,2.75,5.99,8.56,8.79,17.45l4.42,14.79c.53,1.78,2.09,2.99,3.85,2.99h.34c2.81,0,4.76-2.97,3.79-5.77Z"/>
    <path d="M37.67,2.85c-.6-1.71-2.15-2.85-3.87-2.85h-2.16c-1.71,0-3.25,1.12-3.86,2.82L.28,79.03c-1.04,2.87.96,5.95,3.86,5.95,1.73,0,3.28-1.15,3.88-2.88l8.03-23.3c.6-1.73,2.15-2.88,3.88-2.88h2.06c-1.89-2.46-3.03-5.6-3.03-9.02,0-4.46,1.92-8.44,4.94-11.06l4.95-14.15c1.35-3.86,6.52-3.79,7.78.1l4.62,14.29c2.86,2.62,4.68,6.49,4.68,10.82,0,3.42-1.14,6.56-3.03,9.02h1.66c1.75,0,3.32,1.18,3.9,2.93l7.67,23.19c.58,1.76,2.14,2.93,3.9,2.93h.53c2.88,0,4.88-3.05,3.87-5.91L37.67,2.85Z"/>
  </g>
</svg>